<?xml version="1.0" encoding="UTF-8" standalone="no"?>
<svg
   width="96"
   height="96"
   viewBox="0 0 96 96"
   version="1.1"
   xmlns="http://www.w3.org/2000/svg">
  
  <!-- Simplified Stuga notification icon -->
  <!-- White silhouette on transparent (Android will apply color tint) -->
  
  <g fill="#FFFFFF">
    <!-- Three houses representing neighborhood -->
    
    <!-- Left house -->
    <path d="M 18 60 L 18 46 L 28 36 L 38 46 L 38 60 Z" />
    <rect x="23" y="51" width="10" height="9" />
    
    <!-- Center house (slightly larger and taller) -->
    <path d="M 36 64 L 36 42 L 48 28 L 60 42 L 60 64 Z" />
    <rect x="42" y="48" width="12" height="16" />
    
    <!-- Right house -->
    <path d="M 58 60 L 58 46 L 68 36 L 78 46 L 78 60 Z" />
    <rect x="63" y="51" width="10" height="9" />
    
    <!-- Heart above center house (notification indicator) -->
    <path d="M 48 24 C 46 22 43 22 42 24 C 41 26 42 28.5 48 33 C 54 28.5 55 26 54 24 C 53 22 50 22 48 24 Z" />
  </g>
</svg>
